<svg xmlns="http://www.w3.org/2000/svg" viewBox="0 0 616.2 74.33"><defs><style>.cls-1,.cls-2{fill:#463343;}.cls-2{stroke:#463343;stroke-miterlimit:10;stroke-width:0.75px;}</style></defs><title>Asset 1</title><g id="Layer_2" data-name="Layer 2"><g id="Layer_1-2" data-name="Layer 1"><path class="cls-1" d="M46.68.54v9.67H11v22H37.74v9.67H11V73.49H0V.54Z"/><path class="cls-1" d="M137.9.68h25.6a35,35,0,0,1,11.59,1.9,29.35,29.35,0,0,1,9.27,5.22A24.45,24.45,0,0,1,190.21,15,19.07,19.07,0,0,1,192,23.54v2.05a18.51,18.51,0,0,1-1.27,6.93,26.57,26.57,0,0,1-3.75,6.3,17.91,17.91,0,0,1-4.08,3.86A22.44,22.44,0,0,1,177.8,45l-3.86,1.37,2.26,3.13,17.32,23.78H179.84l-18.7-25.44H149V73.29H138Zm27.26,37.45.05,0a16.39,16.39,0,0,0,5.9-1,17,17,0,0,0,4.69-3.08,13.16,13.16,0,0,0,3.53-4.69,12.74,12.74,0,0,0,1-5.42,13,13,0,0,0-1-5.27,15.85,15.85,0,0,0-3.48-4.39v0a15.69,15.69,0,0,0-6-3,26.41,26.41,0,0,0-7.5-1H148.94V38.09h3.42l4.14,0h8.66Z"/><path class="cls-1" d="M245.24.29a51.4,51.4,0,0,1,8.39.68,43.67,43.67,0,0,1,7.78,2.2,53.27,53.27,0,0,1,7.17,3.47q2,1.22,3.64,2.39l-7.89,7a31.59,31.59,0,0,0-7.34-4,33.57,33.57,0,0,0-11.64-2,34,34,0,0,0-11.7,2,32,32,0,0,0-9.82,6,26.86,26.86,0,0,0-6.68,8.74h-.06a24.42,24.42,0,0,0-2.21,10.35,24.33,24.33,0,0,0,2.21,10.4,27.05,27.05,0,0,0,6.73,8.69,28.68,28.68,0,0,0,9.82,5.91,34,34,0,0,0,11.7,2,34.51,34.51,0,0,0,11.75-2,28.58,28.58,0,0,0,7.34-3.91l7.83,7a42.7,42.7,0,0,1-3.64,2.39A42.2,42.2,0,0,1,261.47,71a40.7,40.7,0,0,1-7.78,2.15,48.58,48.58,0,0,1-24.33-2,41.19,41.19,0,0,1-13.46-8.11,35.26,35.26,0,0,1-9.16-12,32.31,32.31,0,0,1-3-14.11,32.51,32.51,0,0,1,3-14.11,37,37,0,0,1,9.16-12,42.31,42.31,0,0,1,13.46-8.15A44.7,44.7,0,0,1,240.83.29Z"/><path class="cls-1" d="M332.45.54v9.67h-35.7v22h26.76v9.67H296.75v22h35.7v9.67H285.77V.54Z"/><path class="cls-1" d="M384.17.29a51.4,51.4,0,0,1,8.39.68,43.67,43.67,0,0,1,7.78,2.2,53.27,53.27,0,0,1,7.17,3.47q2,1.22,3.64,2.39l-7.89,7a31.59,31.59,0,0,0-7.34-4,33.57,33.57,0,0,0-11.64-2,34,34,0,0,0-11.7,2,32,32,0,0,0-9.82,6,26.86,26.86,0,0,0-6.68,8.74H356a24.42,24.42,0,0,0-2.21,10.35A24.33,24.33,0,0,0,356,47.51a27.05,27.05,0,0,0,6.73,8.69,28.68,28.68,0,0,0,9.82,5.91,34,34,0,0,0,11.7,2,34.51,34.51,0,0,0,11.75-2,28.58,28.58,0,0,0,7.34-3.91l7.83,7a42.7,42.7,0,0,1-3.64,2.39A42.2,42.2,0,0,1,400.39,71a40.7,40.7,0,0,1-7.78,2.15,48.58,48.58,0,0,1-24.33-2,41.19,41.19,0,0,1-13.46-8.11,35.26,35.26,0,0,1-9.16-12,32.31,32.31,0,0,1-3-14.11,32.51,32.51,0,0,1,3-14.11,37,37,0,0,1,9.16-12,42.31,42.31,0,0,1,13.46-8.15A44.7,44.7,0,0,1,379.76.29Z"/><path class="cls-1" d="M491.9,73.29H480.15l-6.07-12H439.21l-6.07,12H421.38L456.64,0ZM456.61,53.52H470q-3.37-6.84-6.7-14.7T456.7,24.07q-3.37,6.88-6.76,14.75t-6.7,14.7Z"/><path class="cls-1" d="M531.14,63.15a17.82,17.82,0,0,0,4.42-2.27,11.08,11.08,0,0,0,3.17-3.45,8.53,8.53,0,0,0,1.2-4.39,6.89,6.89,0,0,0-.92-3.66,9.88,9.88,0,0,0-2.48-2.89,18.92,18.92,0,0,0-3.73-2.23,35.63,35.63,0,0,0-4.24-1.68q-2-.64-4.45-1.23a47,47,0,0,1-9.69-3.44A25.86,25.86,0,0,1,507,32.38a17,17,0,0,1-3.38-5.24,15.91,15.91,0,0,1-1.19-6.08,18.6,18.6,0,0,1,1.82-8.1,20.69,20.69,0,0,1,5.09-6.7A24.06,24.06,0,0,1,517,1.73a26.84,26.84,0,0,1,17.56-.27,24.63,24.63,0,0,1,7.17,3.79A20.24,20.24,0,0,1,549,15.38l-11,2a11.06,11.06,0,0,0-3-4.12A12.93,12.93,0,0,0,526.25,10a13.42,13.42,0,0,0-4.8.87,12.91,12.91,0,0,0-4,2.4,11.42,11.42,0,0,0-2.74,3.57,9.55,9.55,0,0,0-1,4.23,8.15,8.15,0,0,0,.54,3,8.76,8.76,0,0,0,1.39,2.41,10.51,10.51,0,0,0,2.19,1.94,19.8,19.8,0,0,0,2.6,1.52,30.79,30.79,0,0,0,3,1.22q1.74.62,3,1l3,.84q1.74.48,2.64.77A44.34,44.34,0,0,1,537.82,36,33.34,33.34,0,0,1,543,39.07a24.8,24.8,0,0,1,4.29,3.86,16.67,16.67,0,0,1,2.87,4.71,14.52,14.52,0,0,1,1.07,5.51,17.17,17.17,0,0,1-2.1,8.22,21.54,21.54,0,0,1-5.55,6.69,28.45,28.45,0,0,1-17.39,6.05A28.12,28.12,0,0,1,516,72.2a26,26,0,0,1-8.63-5.42,20.1,20.1,0,0,1-5.26-8l11-2.07a12,12,0,0,0,5.25,5.36,15.7,15.7,0,0,0,7.78,2.08A18.55,18.55,0,0,0,531.14,63.15Z"/><path class="cls-1" d="M597.78.68H616.2V10.3H594.3v63h-11v-63h-21.9V.68h36.36Z"/><path id="_Compound_Path_" data-name="&lt;Compound Path&gt;" class="cls-2" d="M87.47,68.42c-16.35,0-29.81-12-31.65-27.36l-5.66.64C52.32,59.86,68.2,74,87.47,74a38.1,38.1,0,0,0,23.31-7.87l-3.54-4.34A32.32,32.32,0,0,1,87.47,68.42Z"/><path id="_Compound_Path_2" data-name="&lt;Compound Path&gt;" class="cls-2" d="M68.95,51.69a22.44,22.44,0,0,1-5.09-14.24c0-12.67,10.57-22.94,23.61-22.94a23.94,23.94,0,0,1,14.65,5l2.62-3.22A28.23,28.23,0,0,0,87.47,10.4c-15.37,0-27.83,12.11-27.83,27a26.46,26.46,0,0,0,6,16.78Z"/><path id="_Compound_Path_3" data-name="&lt;Compound Path&gt;" class="cls-2" d="M109.3,20.68,106,23.22a22.44,22.44,0,0,1,5.09,14.23c0,12.67-10.57,22.94-23.61,22.94a24,24,0,0,1-14.64-4.94l-2.62,3.22A28.23,28.23,0,0,0,87.47,64.5c15.37,0,27.83-12.11,27.83-27A26.46,26.46,0,0,0,109.3,20.68Z"/><path id="_Compound_Path_4" data-name="&lt;Compound Path&gt;" class="cls-2" d="M87.47,21.31A16.46,16.46,0,0,1,104,35.55l3-.33a19.4,19.4,0,0,0-19.45-16.8,19.86,19.86,0,0,0-12.15,4.1l1.84,2.26A16.85,16.85,0,0,1,87.47,21.31Z"/><path id="_Compound_Path_5" data-name="&lt;Compound Path&gt;" class="cls-2" d="M104,39.3A16.39,16.39,0,0,1,89.4,53.49l.34,2.87a19.32,19.32,0,0,0,17.18-16.73Z"/><path id="_Compound_Path_6" data-name="&lt;Compound Path&gt;" class="cls-2" d="M85.55,53.49a16.32,16.32,0,0,1-14.7-16,15.79,15.79,0,0,1,3.59-10l-2.33-1.79a18.62,18.62,0,0,0-4.23,11.81A19.24,19.24,0,0,0,85.2,56.36Z"/><path id="_Compound_Path_7" data-name="&lt;Compound Path&gt;" class="cls-2" d="M91.83,1.19l-.66,5.5C107,8.48,119.34,21.57,119.34,37.45a30.29,30.29,0,0,1-6.87,19.21l4.47,3.44A35.71,35.71,0,0,0,125,37.45C125,18.72,110.52,3.29,91.83,1.19Z"/><path id="_Compound_Path_8" data-name="&lt;Compound Path&gt;" class="cls-2" d="M83.12,1.19c-17.25,1.93-30.94,15.21-33,32l5.66.64c1.72-14.2,13.33-25.46,28-27.1Z"/></g></g></svg>